<?xml version="1.0" encoding="UTF-8"?>
<svg id="Layer_2" data-name="Layer 2" xmlns="http://www.w3.org/2000/svg" viewBox="0 0 29.8 30.42">
  <defs>
    <style>
      .cls-1 {
        fill: #469178;
      }
    </style>
  </defs>
  <g id="Layer_1-2" data-name="Layer 1">
    <path class="cls-1" d="M27.36,25.55h-.52s-.1-.02-.13-.06c-.03-.04-.05-.08-.05-.13V8.23h.71c1.03,0,1.8.84,1.8,1.8v16.31s-.05-.05-.08-.08c-.46-.46-1.07-.72-1.72-.72M27.29,29.78H2.51c-2.42,0-2.49-3.6-.08-3.6h.52c.45,0,.82-.37.82-.82v-14.46h3.23c.59,1.82,1.8,3.39,3.48,4.44.74.46,1.24,1.2,1.37,2.02-.51.06-.91.49-.91,1.02v.32h-.78c-.17,0-.32.14-.32.32s.14.32.32.32h.78v.86h-.78c-.17,0-.32.14-.32.32s.14.32.32.32h.78v.16c0,.57.46,1.03,1.03,1.03h.51l.28.78c.14.4.53.67.95.67h2.36c.42,0,.81-.27.95-.67l.28-.78h.51c.57,0,1.03-.46,1.03-1.03v-.16h.78c.17,0,.32-.14.32-.32s-.14-.32-.32-.32h-.78v-.86h.78c.17,0,.32-.14.32-.32s-.14-.32-.32-.32h-.78v-.32c0-.53-.4-.96-.91-1.02.13-.82.61-1.55,1.32-1.99,1.69-1.04,2.92-2.64,3.53-4.47h3.24v14.46c0,.23.1.44.24.58.15.15.35.24.58.24h.52c1.04,0,1.8.87,1.8,1.78v.02c0,1-.88,1.8-1.88,1.8M.63,10.03c0-.98.79-1.8,1.8-1.8h.71v17.13s-.01.08-.03.1c0,.01-.02.02-.02.03-.04.04-.08.06-.13.06h-.52c-.66,0-1.27.25-1.72.71-.03.03-.05.05-.08.08V10.03ZM11.1,10.48c-.05-.07-.09-.14-.13-.21-.23-.4-.4-.84-.5-1.31-.02-.12-.11-.21-.23-.24l-.82-.21v-.89l.82-.21c.12-.03.21-.13.23-.24.11-.54.33-1.06.63-1.52.07-.1.07-.23,0-.34l-.44-.72.63-.64.73.44c.1.06.24.06.34,0,.46-.3.97-.52,1.51-.63.12-.02.22-.12.24-.23l.21-.83h.9l.21.83c.03.12.12.21.24.23.54.11,1.05.32,1.52.63.1.07.23.07.34,0l.73-.44.64.63-.44.73c-.06.11-.06.24,0,.34.31.47.52.98.63,1.51.02.12.11.21.23.25l.83.21v.89l-.83.21c-.12.03-.21.12-.23.24-.1.46-.26.89-.5,1.3-.04.07-.09.14-.13.21-.07.1-.07.24-.01.34l.05.08.39.65-.63.63-.73-.44c-.1-.06-.24-.06-.34,0-.46.31-.98.52-1.52.63-.12.03-.22.11-.24.24l-.21.82h-.9l-.21-.83c-.03-.12-.12-.21-.24-.23-.54-.11-1.05-.32-1.51-.63-.1-.07-.23-.07-.34-.01l-.73.44-.63-.64.39-.65.05-.08c.06-.1.06-.23,0-.34M16.64,22.03l-.21.57c-.05.15-.2.25-.36.25h-2.36c-.16,0-.3-.1-.36-.25l-.21-.57h3.48ZM11.97,21.39c-.22,0-.4-.18-.4-.4v-2.61c0-.22.18-.4.4-.4h5.85c.22,0,.4.18.4.4v2.61c0,.22-.18.4-.4.4-1.3,0-3.94,0-5.85,0M15.44.65c3.86.27,6.99,3.51,7.13,7.38.09,2.71-1.27,5.33-3.64,6.8-.89.55-1.49,1.48-1.62,2.52h-2.2v-3.28h.16c.28,0,.52-.19.58-.46l.17-.65c.48-.12.94-.31,1.37-.57l.58.35c.24.15.54.11.74-.09l.66-.67c.2-.19.24-.5.1-.74l-.21-.34-.14-.24c.08-.13.14-.26.21-.39.15-.31.28-.64.36-.98l.65-.17c.27-.06.46-.3.46-.59v-.94c0-.28-.19-.52-.46-.59l-.66-.17c-.12-.48-.31-.94-.57-1.37l.35-.58c.14-.24.11-.55-.09-.74l-.67-.67c-.2-.2-.5-.23-.74-.09l-.58.35c-.43-.26-.89-.45-1.37-.57l-.17-.66c-.07-.27-.31-.46-.58-.46h-.94c-.28,0-.53.2-.59.46l-.16.66c-.49.12-.94.31-1.37.57l-.59-.35c-.24-.14-.54-.1-.74.09l-.66.67c-.2.2-.24.5-.1.74l.35.58c-.26.42-.45.88-.57,1.37l-.65.17c-.27.06-.46.3-.46.59v.94c0,.28.19.52.46.58l.66.17c.08.34.2.66.35.98.06.13.14.27.21.39l-.15.24-.21.34c-.14.24-.1.55.1.74l.67.67c.2.2.5.23.74.09l.58-.35c.43.26.89.45,1.37.57l.16.65c.06.27.31.47.59.47h.15v3.28h-1.97c-.15-1.04-.76-1.97-1.67-2.55-2.3-1.45-3.59-3.91-3.59-6.5C7.23,3.97,10.88.34,15.44.65M27.36,7.6h-.8c-.3,0-.55.24-.55.55v2.12h-3.06c.18-.73.26-1.49.23-2.25C23.05,3.82,19.67.31,15.48.02,10.53-.32,6.6,3.62,6.6,8.3c0,.67.08,1.33.23,1.96h-3.05v-2.12c0-.3-.24-.55-.55-.55h-.79C1.06,7.6,0,8.72,0,10.03c0,18.77,0,17.93,0,18.01.03,1.3,1.18,2.37,2.51,2.37h24.77c1.35,0,2.51-1.09,2.51-2.43V10.03c0-1.33-1.07-2.44-2.43-2.44"/>
    <path class="cls-1" d="M14.78,5.85c1.22,0,2.22.99,2.22,2.21,0,1.15-.87,2.09-1.99,2.2-.07.01-.15.01-.22.01s-.15,0-.23-.01c-1.12-.11-1.99-1.05-1.99-2.2,0-1.22.99-2.21,2.21-2.21M12.98,10.26c.43.35.97.58,1.55.63.08,0,.17.01.25.01s.17,0,.26-.01c.59-.05,1.12-.28,1.55-.63.64-.53,1.04-1.32,1.04-2.2,0-1.57-1.28-2.85-2.85-2.85s-2.85,1.28-2.85,2.85c0,.88.4,1.68,1.04,2.2"/>
    <path class="cls-1" d="M14.23,8.72c.06.07.15.11.24.11.07,0,.15-.03.2-.08l1.05-.89c.13-.11.15-.31.03-.45-.11-.13-.31-.15-.45-.03l-.81.69-.22-.25c-.11-.13-.32-.15-.45-.03-.13.11-.15.32-.03.45l.43.49Z"/>
    <path class="cls-1" d="M22.89,25.12H7.02c-.18,0-.32.14-.32.32s.14.32.32.32h15.87c.17,0,.32-.14.32-.32s-.14-.32-.32-.32"/>
    <path class="cls-1" d="M22.89,27.31H7.02c-.18,0-.32.14-.32.32s.14.32.32.32h15.87c.17,0,.32-.14.32-.32s-.14-.32-.32-.32"/>
    <path class="cls-1" d="M12.89,19.3h-.18c-.17,0-.32-.14-.32-.32s.14-.32.32-.32h.18c.17,0,.32.14.32.32s-.14.32-.32.32"/>
    <path class="cls-1" d="M15.04,19.3h-1.14c-.17,0-.32-.14-.32-.32s.14-.32.32-.32h1.14c.17,0,.32.14.32.32s-.14.32-.32.32"/>
    <path class="cls-1" d="M27.45,11.47c-.18,0-.32-.14-.32-.32v-.18c0-.18.14-.32.32-.32s.32.14.32.32v.18c0,.17-.14.32-.32.32"/>
    <path class="cls-1" d="M27.45,15.9c-.18,0-.32-.14-.32-.32v-3.02c0-.17.14-.32.32-.32s.32.14.32.32v3.02c0,.17-.14.32-.32.32"/>
    <path class="cls-1" d="M1.37,10.91c-.18,0-.32-.14-.32-.32v-.18c0-.18.14-.32.32-.32s.32.14.32.32v.18c0,.17-.14.32-.32.32"/>
    <path class="cls-1" d="M1.37,15.35c-.18,0-.32-.14-.32-.32v-3.02c0-.17.14-.32.32-.32s.32.14.32.32v3.02c0,.17-.14.32-.32.32"/>
  </g>
</svg>