<?xml version="1.0" encoding="UTF-8"?>
<svg id="Layer_2" data-name="Layer 2" xmlns="http://www.w3.org/2000/svg" viewBox="0 0 27.14 30.01">
  <defs>
    <style>
      .cls-1 {
        fill: #fff;
      }
    </style>
  </defs>
  <g id="Layer_1-2" data-name="Layer 1">
    <path class="cls-1" d="M26.23,14.27l-.99,1.29-2.23-1.68.98-1.29c.47-.63,1.36-.73,1.96-.28,0,0,0,0,0,0,.61.46.74,1.35.28,1.97M20.68,21.63l-2.32-1.59,4.27-5.67,2.25,1.7-4.2,5.57ZM21.74,25.81c0,1.97-1.6,3.57-3.58,3.57H4.2c-1.97,0-3.58-1.6-3.58-3.57V6.4c0-1.97,1.6-3.57,3.58-3.57h2.06v1.29h-2.06c-1.26,0-2.29,1.03-2.29,2.29v19.41c0,1.26,1.03,2.29,2.29,2.29h13.97c1.26,0,2.29-1.02,2.29-2.29v-2.84s1.29-1.71,1.29-1.71v4.55ZM18.56,23.34l-1.12.25-.06-1.11c.51.07.96.4,1.19.86M17.34,21.86h0c-.01-.28.07-.56.24-.78l.41-.54,2.32,1.59-.49.65c-.16.21-.39.36-.64.42-.31-.76-1.02-1.27-1.84-1.34M7.21,6.1h7.58c.52,0,.94-.43.94-.95v-.41h2.44c.91,0,1.66.75,1.66,1.66v10.65l-2.76,3.65c-.26.34-.38.76-.36,1.18l.1,1.86c.02.33.33.56.65.49l1.82-.41c.2-.04.38-.12.55-.23v2.22c0,.92-.75,1.66-1.66,1.66H4.2c-.92,0-1.66-.74-1.66-1.66V6.4c0-.91.75-1.66,1.66-1.66h2.06v.41c0,.52.43.95.95.95M6.89,2.43c0-.18.14-.32.32-.32h7.58c.17,0,.32.14.32.32v2.72c0,.18-.14.32-.32.32h-7.58c-.18,0-.32-.14-.32-.32v-2.72ZM9.39.71c.03-.05.08-.08.14-.08h2.94c.06,0,.11.03.14.08l.42.77h-4.07l.42-.77ZM15.73,2.83h2.44c1.97,0,3.58,1.6,3.58,3.57v8.11l-1.29,1.71V6.4c0-1.26-1.03-2.29-2.29-2.29h-2.44v-1.29ZM26.25,11.75c-.93-.64-2.14-.39-2.77.45l-1.12,1.45v-7.25c0-2.32-1.89-4.2-4.2-4.2h-2.47c-.1-.41-.47-.72-.91-.72h-1.04l-.59-1.08c-.14-.25-.4-.41-.69-.41h-2.94c-.29,0-.55.16-.69.41l-.59,1.08h-1.04c-.44,0-.81.31-.92.72h-2.09C1.88,2.2,0,4.08,0,6.4v19.41c0,2.32,1.88,4.2,4.2,4.2h13.97c2.32,0,4.2-1.88,4.2-4.2v-5.38h0s0-.01,0-.01h0s0,0,0,0c0-.01.02-.03.04-.05.01-.02.02-.02.02-.02.24-.32,1.17-1.55,4.29-5.69.28-.36.41-.79.41-1.22,0-.64-.3-1.28-.88-1.68"/>
    <path class="cls-1" d="M7.52,10.02l.37.49h-1.82v-1.58h1.82l-.37.49c-.13.18-.13.42,0,.6M8.07,9.72l.47-.62c.07-.09.1-.19.1-.3,0-.08-.02-.15-.05-.22-.08-.17-.25-.27-.44-.27h-2.07v-.06c0-.18-.14-.31-.31-.31s-.31.14-.31.31v4.65c0,.17.14.31.31.31s.31-.14.31-.31v-1.75h2.07c.19,0,.36-.1.44-.27.08-.17.07-.37-.05-.52l-.47-.62Z"/>
    <path class="cls-1" d="M6.77,25.38c0,.06-.05.1-.1.1h-1.71c-.06,0-.1-.05-.1-.1v-1.71c0-.06.05-.1.1-.1h1.71c.06,0,.1.05.1.1v1.71ZM6.67,22.94h-1.71c-.4,0-.73.33-.73.73v1.71c0,.4.33.73.73.73h1.71c.4,0,.73-.33.73-.73v-1.71c0-.4-.33-.73-.73-.73"/>
    <path class="cls-1" d="M15.41,23.62h-6.39c-.17,0-.31.14-.31.31s.14.31.31.31h6.39c.17,0,.31-.14.31-.31s-.14-.31-.31-.31"/>
    <path class="cls-1" d="M13.17,25.09h-4.15c-.17,0-.31.14-.31.31s.14.31.31.31h4.15c.17,0,.31-.14.31-.31s-.14-.31-.31-.31"/>
    <path class="cls-1" d="M16.41,14.66s-.02.04-.04.04h-1.15s-.04-.02-.04-.04v-1.15s.02-.04.04-.04h1.15s.04.02.04.04v1.15ZM6.38,18.03s-.02.04-.04.04h-1.15s-.04-.02-.04-.04v-1.15s.02-.04.04-.04h1.15s.04.02.04.04v1.15ZM16.37,12.84h-1.15c-.37,0-.67.3-.67.67v.1H5.76c-.17,0-.31.14-.31.31s.14.31.31.31h8.78v.43c0,.37.3.67.67.67h.27v1.6c0,.07-.05.12-.12.12H7v-.17c0-.37-.3-.67-.67-.67h-1.15c-.37,0-.67.3-.67.67v1.15c0,.37.3.67.67.67h.27v1.52c0,.41.33.74.74.74h7.81c.17,0,.31-.14.31-.31s-.14-.31-.31-.31h-7.81c-.06,0-.12-.05-.12-.12v-1.52h.26c.37,0,.67-.3.67-.67v-.36h8.36c.41,0,.74-.33.74-.74v-1.6h.26c.37,0,.67-.3.67-.67v-1.15c0-.37-.3-.67-.67-.67"/>
    <path class="cls-1" d="M12.39,8.55h4.48c.17,0,.31-.14.31-.31s-.14-.31-.31-.31h-4.48c-.17,0-.31.14-.31.31s.14.31.31.31"/>
    <path class="cls-1" d="M12.39,10.16h4.48c.17,0,.31-.14.31-.31s-.14-.31-.31-.31h-4.48c-.17,0-.31.14-.31.31s.14.31.31.31"/>
    <path class="cls-1" d="M10.81,3.29h-1.37c-.17,0-.31-.14-.31-.31s.14-.31.31-.31h1.37c.17,0,.31.14.31.31s-.14.31-.31.31"/>
    <path class="cls-1" d="M8.55,3.29h-.25c-.17,0-.31-.14-.31-.31s.14-.31.31-.31h.25c.17,0,.31.14.31.31s-.14.31-.31.31"/>
  </g>
</svg>