<?xml version="1.0" encoding="UTF-8"?>
<svg id="Layer_2" data-name="Layer 2" xmlns="http://www.w3.org/2000/svg" viewBox="0 0 29.15 29.67">
  <defs>
    <style>
      .cls-1 {
        fill: #9b3250;
      }
    </style>
  </defs>
  <g id="Layer_1-2" data-name="Layer 1">
    <path class="cls-1" d="M22.75,18.83c-1.25.6-2.78.08-3.4-1.21-.6-1.27-.06-2.79,1.21-3.4,1.25-.6,2.8-.07,3.4,1.21.63,1.31,0,2.86-1.2,3.4M24.52,15.17c-.75-1.57-2.64-2.25-4.22-1.5-1.58.75-2.25,2.65-1.5,4.22.78,1.64,2.75,2.23,4.22,1.5,1.57-.75,2.25-2.64,1.5-4.22"/>
    <path class="cls-1" d="M22.34,15.76l-1.02.87-.31-.36c-.11-.13-.31-.14-.44-.03s-.14.31-.03.44l.51.59c.11.13.3.14.43.03l1.25-1.07c.13-.11.15-.31.03-.44-.11-.13-.31-.15-.44-.03"/>
    <path class="cls-1" d="M9.96,10.67h7.65c.17,0,.31-.14.31-.31s-.14-.31-.31-.31h-7.65c-.17,0-.31.14-.31.31s.14.31.31.31"/>
    <path class="cls-1" d="M9.96,12.45h4.59c.17,0,.31-.14.31-.31s-.14-.31-.31-.31h-4.59c-.17,0-.31.14-.31.31s.14.31.31.31"/>
    <path class="cls-1" d="M15.2,16.13h-5.25c-.17,0-.31.14-.31.31s.14.31.31.31h5.25c.17,0,.31-.14.31-.31s-.14-.31-.31-.31"/>
    <path class="cls-1" d="M9.96,18.52h2.83c.17,0,.31-.14.31-.31s-.14-.31-.31-.31h-2.83c-.17,0-.31.14-.31.31s.14.31.31.31"/>
    <path class="cls-1" d="M6.31,16.75c.07.18.1.37.1.57,0,.96-.79,1.75-1.75,1.75s-1.75-.78-1.75-1.75.78-1.75,1.75-1.75c.54,0,1.02.24,1.33.63l-1.3,1.11-.45-.51c-.11-.13-.31-.14-.44-.03-.13.11-.14.31-.03.44l.65.74c.06.07.15.11.23.11.07,0,.14-.02.2-.08l1.44-1.23M7.02,15.32l-.56.48c-.43-.51-1.09-.84-1.81-.84-1.3,0-2.36,1.06-2.36,2.36s1.06,2.36,2.36,2.36,2.36-1.06,2.36-2.36c0-.35-.08-.69-.22-.99,0,0,0,0,0,0l.62-.54c.13-.11.15-.31.03-.43-.11-.13-.31-.15-.44-.03"/>
    <path class="cls-1" d="M6.31,10.68c.07.18.1.37.1.57,0,.96-.79,1.75-1.75,1.75s-1.75-.79-1.75-1.75.78-1.75,1.75-1.75c.53,0,1.02.24,1.34.62l-1.3,1.11-.45-.51c-.11-.13-.31-.14-.44-.03-.13.11-.14.31-.03.44l.65.74c.06.07.15.11.23.11.07,0,.14-.02.2-.08l1.44-1.23s0,0,0,0M7.02,9.25l-.56.48c-.43-.51-1.08-.84-1.8-.84-1.3,0-2.36,1.06-2.36,2.36s1.06,2.36,2.36,2.36,2.36-1.06,2.36-2.36c0-.35-.08-.69-.22-1l.62-.53c.13-.11.15-.31.03-.44-.11-.13-.31-.14-.44-.03"/>
    <path class="cls-1" d="M15.2,22.2h-5.25c-.17,0-.31.14-.31.31s.14.31.31.31h5.25c.17,0,.31-.14.31-.31s-.14-.31-.31-.31"/>
    <path class="cls-1" d="M12.79,23.98h-2.83c-.17,0-.31.14-.31.31s.14.31.31.31h2.83c.17,0,.31-.14.31-.31s-.14-.31-.31-.31"/>
    <path class="cls-1" d="M6.41,23.4c0,.96-.79,1.75-1.75,1.75s-1.75-.79-1.75-1.75.78-1.75,1.75-1.75c.53,0,1.02.24,1.33.63l-1.3,1.11-.45-.51c-.11-.13-.31-.14-.44-.03-.13.11-.14.31-.03.44l.65.74c.06.07.15.11.23.11.07,0,.14-.02.2-.08l1.44-1.23c.07.18.1.37.1.57M7.02,21.4l-.56.48c-.43-.51-1.08-.84-1.81-.84-1.3,0-2.36,1.06-2.36,2.36s1.06,2.36,2.36,2.36,2.36-1.06,2.36-2.36c0-.36-.08-.69-.22-1l.62-.53c.13-.11.15-.31.03-.44-.11-.13-.31-.14-.44-.03"/>
    <path class="cls-1" d="M28.08,25h0c-.62.51-1.55.25-2.08-.4-.39-.48-1.27-2.05-1.6-3.23.17-.08.55-.33.97-.69,1.02.56,2.32,1.67,2.76,2.21.54.67.57,1.63-.04,2.12M17.2,18.66c-1.17-2.46-.13-5.42,2.33-6.59,2.46-1.17,5.41-.14,6.59,2.34,1.21,2.54,0,5.48-2.22,6.53,0,0,0,0-.01,0-2.25,1.23-5.44.34-6.69-2.28M22.3,27.78c0,.7-.57,1.26-1.26,1.26H1.88c-.7,0-1.26-.57-1.26-1.26V7.26h21.68v3.74c-1.03-.12-2.07.05-3.03.51-2.77,1.32-3.95,4.64-2.63,7.41,1.06,2.21,3.39,3.4,5.66,3.13v5.73ZM18.12,4.54c.17,0,.31-.14.31-.31v-.36c.16.1.26.28.26.48,0,.32-.26.57-.57.57s-.57-.26-.57-.57c0-.2.1-.37.26-.48t0,0v.36c0,.17.14.31.31.31M13.68,4.54c.17,0,.31-.14.31-.31v-.36s0,0,0,0c.16.1.26.27.26.47,0,.32-.26.57-.57.57s-.57-.26-.57-.57c0-.2.1-.38.26-.48v.36c0,.17.14.31.31.31M9.24,4.54c.17,0,.31-.14.31-.31v-.36c.16.1.26.27.26.47,0,.32-.26.57-.57.57s-.57-.26-.57-.57c0-.2.1-.38.26-.48v.36c0,.17.14.31.31.31M4.8,4.54c.17,0,.31-.14.31-.31v-.36c.16.1.26.28.26.48,0,.32-.26.57-.57.57s-.57-.26-.57-.57c0-.2.1-.37.26-.48,0,0,0,0,0,0v.36c0,.17.14.31.31.31M.62,3.32c0-.7.57-1.26,1.26-1.26h2.61v1.15h0c-.51.14-.88.6-.88,1.14,0,.66.53,1.19,1.19,1.19s1.19-.53,1.19-1.19c0-.54-.37-1.01-.88-1.14v-1.15h3.82v1.15c-.51.13-.88.6-.88,1.14,0,.66.54,1.19,1.19,1.19s1.19-.53,1.19-1.19c0-.54-.37-1.01-.88-1.14v-1.15h3.82v1.15c-.51.14-.88.6-.88,1.15,0,.66.53,1.19,1.19,1.19s1.19-.53,1.19-1.19c0-.54-.37-1.01-.88-1.14h0v-1.15h3.82v1.15h0c-.51.14-.88.6-.88,1.14,0,.66.53,1.19,1.19,1.19s1.19-.53,1.19-1.19c0-.54-.37-1.01-.88-1.14v-1.15h2.61c.7,0,1.26.57,1.26,1.26v3.33H.62v-3.33ZM28.61,22.49c-.44-.54-1.7-1.64-2.79-2.27,1.44-1.62,1.85-4.01.86-6.08-.76-1.59-2.17-2.66-3.77-3.02V3.32c0-1.04-.84-1.88-1.88-1.88h-2.61V.31c0-.17-.14-.31-.31-.31s-.31.14-.31.31v1.13h-3.82V.31c0-.17-.14-.31-.31-.31s-.31.14-.31.31v1.13h-3.82V.31c0-.17-.14-.31-.31-.31s-.31.14-.31.31v1.13h-3.82V.31c0-.17-.14-.31-.31-.31s-.31.14-.31.31v1.13H1.88c-1.04,0-1.88.84-1.88,1.88v24.47c0,1.04.84,1.88,1.88,1.88h19.16c1.04,0,1.88-.84,1.88-1.88v-5.84c.31-.07.62-.17.92-.3.36,1.19,1.2,2.75,1.68,3.34.74.92,2.07,1.22,2.95.5.89-.72.88-2.07.14-2.99"/>
  </g>
</svg>