<?xml version="1.0" encoding="UTF-8"?>
<svg id="Layer_2" data-name="Layer 2" xmlns="http://www.w3.org/2000/svg" viewBox="0 0 20.46 29.01">
  <defs>
    <style>
      .cls-1 {
        fill: #fff;
      }
    </style>
  </defs>
  <g id="Layer_1-2" data-name="Layer 1">
    <g>
      <path class="cls-1" d="M15.52,18.28c-1.15.75-2.03,1.67-2.22,3.3h-2.76v-3.83c0-.53-.43-.95-.96-.95h-.06c-.3,0-.58.14-.77.4-.36.46-.92.7-1.52.62-.72-.09-1.3-.69-1.39-1.41-.12-1,.66-1.83,1.61-1.83.51,0,.99.23,1.3.64.19.25.47.4.77.4h.06c.53,0,.96-.43.96-.96v-3.25h3.25c.19,0,.35.16.35.35v.06c0,.15-.1.25-.15.29-.55.42-.88,1.08-.88,1.77,0,1.35,1.18,2.38,2.51,2.21.99-.12,1.81-.92,1.94-1.91.1-.8-.22-1.58-.86-2.07-.06-.04-.16-.15-.16-.29v-.06c0-.19.16-.35.35-.35h2.91c-.25,2.54-1.78,5.24-4.27,6.89M14.46,22.87v.41H6v-.41c0-.38.31-.69.69-.69.03,0,5.69.01,7.09,0,.38,0,.69.31.69.69M14.46,24.89H6v-1.01h8.46v1.01ZM14.46,25.91c0,.38-.3.69-.69.69h-7.09c-.38,0-.69-.31-.69-.69v-.41h8.46v.41ZM12.23,28.03c-.08.22-.29.37-.53.37h-2.93c-.24,0-.45-.15-.53-.37l-.3-.83h4.59l-.3.83ZM5.11,18.39c-2.55-1.58-4.11-4.26-4.44-6.98,0,0,0-.01,0-.02h2.91c.94,0,1.3-1.23.55-1.79-.46-.36-.7-.93-.62-1.52.09-.71.69-1.3,1.41-1.39,1.01-.12,1.83.67,1.83,1.62,0,.51-.24.99-.64,1.29-.75.57-.38,1.79.56,1.79h3.25v3.25c0,.19-.16.35-.35.35h-.06c-.11,0-.22-.06-.29-.16-.42-.56-1.07-.88-1.78-.88-1.34,0-2.37,1.17-2.21,2.51h0c.12.99.93,1.81,1.92,1.94.81.1,1.58-.22,2.07-.85.05-.06.15-.16.3-.16h.06c.2,0,.35.16.35.35v3.83h-2.77c-.16-1.29-.91-2.47-2.05-3.18M3.66,3.19c1.73-1.62,3.92-2.52,6.27-2.58v3.83c0,.94,1.22,1.3,1.79.56.36-.47.93-.7,1.52-.62.71.09,1.3.68,1.38,1.41.21,1.62-1.9,2.51-2.9,1.19-.59-.76-1.79-.37-1.79.56v3.25h-3.25c-.36,0-.48-.48-.2-.7.56-.42.89-1.08.89-1.77,0-1.33-1.16-2.38-2.51-2.21-.99.12-1.81.92-1.94,1.91-.11.82.21,1.59.85,2.08.1.08.16.18.16.29v.06c0,.19-.16.35-.35.35H.62c-.01-.18-.02-.37-.02-.56,0-2.66,1.12-5.22,3.06-7.04M19.85,10.54c0,.09,0,.17-.01.25h-2.96c-.53,0-.96.43-.96.96v.06c0,.3.15.58.4.77.47.36.7.93.62,1.51-.1.72-.69,1.3-1.41,1.39-1,.12-1.83-.66-1.83-1.62,0-.5.24-.98.64-1.29.25-.19.39-.47.39-.77v-.06c0-.53-.43-.96-.96-.96h-3.25v-3.25c0-.19.16-.35.35-.35.03,0,.19-.05.36.16.85,1.12,2.51,1.17,3.44.12.42-.48.62-1.12.54-1.76-.12-.99-.92-1.81-1.91-1.93-.81-.11-1.59.21-2.08.85-.04.06-.15.16-.29.16h-.06c-.19,0-.35-.16-.35-.35V.61s.04,0,.07,0c4.95.15,9.41,4.45,9.25,9.92M10.23,0s-.02,0-.04,0c-2.6,0-5.04.97-6.95,2.75C1.18,4.68,0,7.41,0,10.23c0,3.63,1.87,6.82,4.79,8.67.96.61,1.61,1.59,1.76,2.68-.65.07-1.16.62-1.16,1.29v.41h-.71c-.17,0-.3.13-.3.3s.13.3.3.3h.71v1.01h-.71c-.17,0-.3.14-.3.3s.13.3.3.3h.71v.41c0,.71.58,1.29,1.29,1.29h.61l.37,1.04c.02.06.04.11.07.17,0,0,0,0,0,0H3.74c-.17,0-.3.14-.3.3s.13.3.3.3h12.99c.17,0,.3-.13.3-.3s-.13-.3-.3-.3h-4.01c.03-.05.05-.11.08-.17l.37-1.04h.61c.71,0,1.29-.58,1.29-1.29v-.41h.71c.17,0,.3-.13.3-.3s-.14-.3-.3-.3h-.71v-1.01h.71c.17,0,.3-.14.3-.3s-.14-.3-.3-.3h-.71v-.41c0-.67-.51-1.22-1.16-1.29.14-1.06.74-2.05,1.7-2.64,2.72-1.67,4.71-4.71,4.85-8.38.22-5.51-4.33-10.57-10.22-10.57"/>
      <path class="cls-1" d="M7.62,2.63c-.14,0-.26-.09-.29-.23-.04-.16.06-.33.23-.36.14-.03.27-.06.41-.08.17-.03.32.08.35.25.03.16-.09.32-.25.35-.13.02-.25.05-.37.07-.02,0-.05,0-.07,0"/>
      <path class="cls-1" d="M4.31,4.76c-.06,0-.13-.02-.18-.06-.13-.1-.16-.29-.06-.42.56-.72,1.28-1.32,2.08-1.73.15-.08.33-.02.41.13.08.15.02.33-.13.41-.73.37-1.38.91-1.88,1.56-.06.08-.15.12-.24.12"/>
    </g>
  </g>
</svg>